# AST/ASF file generated using VICON BodyLanguage
# -----------------------------------------------
:version 1.10
:name VICON
:units
  mass 1.0
  length 0.45
  angle deg
:documentation
   .ast/.asf automatically generated from VICON data using
   VICON BodyBuilder and BodyLanguage model FoxedUp or BRILLIANT.MOD
:root
   order TX TY TZ RX RY RZ
   axis XYZ
   position 0 0 0  
   orientation 0 0 0 
:bonedata
  begin
     id 1 
     name lhipjoint
     direction 0.567725 -0.736092 0.368589 
     length 2.42353 
     axis 0 0 0  XYZ
  end
  begin
     id 2 
     name lfemur
     direction 0.34202 -0.939693 0  
     length 7.24894  
     axis 0 0 20  XYZ
    dof rx ry rz
    limits (-160.0 20.0)
           (-70.0 70.0)
           (-60.0 70.0)
  end
  begin
     id 3 
     name ltibia
     direction 0.34202 -0.939693 0   
     length 7.6997   
     axis 0 0 20   XYZ
    dof rx
    limits (-10.0 170.0)
  end
  begin
     id 4 
     name lfoot
     direction 0.100767 -0.276854 0.955614   
     length 2.37556   
     axis -90 7.62852e-016 20   XYZ
    dof rx rz
    limits (-45.0 90.0)
           (-70.0 20.0)
  end
  begin
     id 5 
     name ltoes
     direction 1.53592e-011 -4.21894e-011 1   
     length 1.18363   
     axis -90 7.62852e-016 20   XYZ
    dof rx
    limits (-90.0 20.0)
  end
  begin
     id 6 
     name rhipjoint
     direction -0.556459 -0.742938 0.372017   
     length 2.4012  
     axis 0 0 0  XYZ 
  end
  begin
     id 7 
     name rfemur
     direction -0.34202 -0.939693 0   
     length 7.5119   
     axis 0 0 -20   XYZ
    dof rx ry rz
    limits (-160.0 20.0)
           (-70.0 70.0)
           (-70.0 60.0)
  end
  begin
     id 8 
     name rtibia
     direction -0.34202 -0.939693 0   
     length 7.50155   
     axis 0 0 -20   XYZ
    dof rx
    limits (-10.0 170.0)
 end
 begin
     id 9 
     name rfoot
     direction -0.118427 -0.325376 0.938139   
     length 2.32487  
     axis -90 -7.62852e-016 -20   XYZ
    dof rx rz
    limits (-45.0 90.0)
           (-20.0 70.0)
  end
  begin
     id 10 
     name rtoes
     direction -1.53525e-011 -4.21868e-011 1   
     length 1.15233   
     axis -90 -7.62852e-016 -20   XYZ
    dof rx
    limits (-90.0 20.0)
  end
  begin
     id 11 
     name lowerback
     direction 0.0287568 0.999577 -0.00434502   
     length 2.15243   
     axis 0 0 0   XYZ
    dof rx ry rz
    limits (-20.0 45.0)
           (-30.0 30.0)
           (-30.0 30.0)
  end
  begin
     id 12 
     name upperback
     direction 0.0294009 0.99956 0.00404628   
     length 2.15427   
     axis 0 0 0   XYZ
    dof rx ry rz
    limits (-20.0 45.0)
           (-30.0 30.0)
           (-30.0 30.0)
  end
  begin
     id 13 
     name thorax
     direction 0.0151014 0.999868 0.0059419   
     length 2.14898   
     axis 0 0 0   XYZ
    dof rx ry rz
    limits (-20.0 45.0)
           (-30.0 30.0)
           (-30.0 30.0)
  end
  begin
     id 14 
     name lowerneck
     direction -0.0249197 0.989906 0.139515   
     length 1.6861   
     axis 0 0 0   XYZ
    dof rx ry rz
    limits (-20.0 45.0)
           (-30.0 30.0)
           (-30.0 30.0)
  end
  begin
     id 15 
     name upperneck
     direction 0.0438463 0.988795 -0.142693   
     length 1.71276   
     axis 0 0 0   XYZ
    dof rx ry rz
    limits (-20.0 45.0)
           (-30.0 30.0)
           (-30.0 30.0)
  end
  begin
     id 16
     name head
     direction 0.0148499 0.997845 -0.0639186  
     length 1.7209  
     axis 0 0 0   XYZ
    dof rx ry rz
    limits (-20.0 45.0)
           (-30.0 30.0)
           (-30.0 30.0)
  end
  begin
     id 17 
     name lclavicle
     direction 0.940298 0.323464 -0.105876  
     length 3.9048  
     axis 0 0 0   XYZ
    dof ry rz
    limits (-20.0 10.0)
           (0.0 20.0)
  end
  begin
     id 18 
     name lhumerus
     direction 1 -4.48954e-011 -4.9675e-028   
     length 4.6851   
     axis 180 -30 -90   XYZ
    dof rx ry rz
    limits (-60.0 90.0)
           (-90.0 90.0)
           (-90.0 90.0)
  end
  begin
     id 19
     name lradius
     direction 1 -4.48992e-011 -1.03359e-026   
     length 3.39626   
     axis 180 -30 -90   XYZ
    dof rx
    limits (-10.0 170.0)
  end
  begin
     id 20
     name lwrist
     direction 1 -4.48906e-011 -1.67336e-026   
     length 1.69813   
     axis 9.90442e-015 90 90   XYZ
    dof ry
    limits (-180.0 0.0)
 end
  begin
     id 21 
     name lhand
     direction 1 -4.49006e-011 -3.34673e-026   
     length 0.486078   
     axis 2.1355e-014 90 90   XYZ
    dof rx rz
    limits (-90.0 90.0)
           (-45.0 45.0)
  end
  begin
     id 22 
     name lfingers
     direction 1 -4.48992e-011 -6.69345e-026   
     length 0.391889   
     axis 4.27099e-014 90 90   XYZ
    dof rx
    limits (0.0 90.0)
  end
  begin
     id 23
     name lthumb
     direction 0.707107 -6.34926e-011 0.707107   
     length 0.562676   
     axis -90 45 2.85299e-015   XYZ
    dof rx rz
    limits (-45.0 45.0)
           (-45.0 45.0)
  end
  begin
     id 24 
     name rclavicle
     direction -0.882459 0.414895 -0.221648   
     length 3.44646  
     axis 0 0 0   XYZ 
    dof ry rz
    limits (-10.0 20.0)
           (-20.0 0.0)
  end
  begin
     id 25 
     name rhumerus
     direction -1 -4.48962e-011 -2.37984e-027  
     length 5.55576   
     axis 180 30 90   XYZ
    dof rx ry rz
    limits (-90.0 60.0)
           (-90.0 90.0)
           (-90.0 90.0)
  end
  begin
     id 26 
     name rradius
     direction -1 -4.48982e-011 -6.86791e-027   
     length 3.32774   
     axis 180 30 90   XYZ
    dof rx
    limits (-10.0 170.0)
  end
  begin
     id 27 
     name rwrist
     direction -1 -4.48961e-011 -1.67336e-026   
     length 1.66387   
     axis 9.90442e-015 -90 -90   XYZ
    dof ry
    limits (-180.0 0.0)
  end
  begin
     id 28
     name rhand
     direction -1 -4.4897e-011 -3.34673e-026   
     length 0.507628   
     axis 2.1355e-014 -90 -90   XYZ
    dof rx rz
    limits (-90.0 90.0)
           (-45.0 45.0)
  end
  begin
     id 29
     name rfingers
     direction -1 -4.48854e-011 -6.69345e-026   
     length 0.409263   
     axis 4.27099e-014 -90 -90   XYZ
    dof rx
    limits (0.0 90.0)
  end
  begin
     id 30
     name rthumb
     direction -0.707107 -6.34913e-011 0.707107   
     length 0.587622   
     axis -90 -45 -2.85299e-015   XYZ
    dof rx rz
    limits (-45.0 45.0)
           (-45.0 45.0)
  end
:hierarchy
  begin
    root lhipjoint rhipjoint lowerback
    lhipjoint lfemur
    lfemur ltibia
    ltibia lfoot
    lfoot ltoes
    rhipjoint rfemur
    rfemur rtibia
    rtibia rfoot
    rfoot rtoes
    lowerback upperback
    upperback thorax
    thorax lowerneck lclavicle rclavicle
    lowerneck upperneck
    upperneck head
    lclavicle lhumerus
    lhumerus lradius
    lradius lwrist
    lwrist lhand lthumb
    lhand lfingers
    rclavicle rhumerus
    rhumerus rradius
    rradius rwrist
    rwrist rhand rthumb
    rhand rfingers
  end

#!OML:ASF E:\motion texture\Top Level 1\Subject 1\Session 1\male.ASF
:FULLY-SPECIFIED
:DEGREES
26
root 40.9844 17.8332 1.61128 106.247 -84.8666 -95.9193
lowerback -6.33803 -1.72696 3.53192
upperback -2.44246 -2.65088 2.89339
thorax 1.01186 -1.37019 0.809634
lowerneck -13.3317 -9.5115 -12.029
upperneck 15.0509 -12.238 8.80341
head 8.14639 -5.79526 3.40626
rclavicle 1.57661e-014 -1.23246e-014
rhumerus -27.5445 -7.83493 -80.7164
rradius 26.5965
rwrist 11.625
rhand -13.8131 -25.3714
rfingers 7.12502
rthumb 12.3093 -54.9891
lclavicle 1.57661e-014 -1.23246e-014
lhumerus -29.6646 12.1308 82.6724
lradius 24.7282
lwrist -24.3932
lhand -13.1899 21.3387
lfingers 7.12502
lthumb 12.9102 50.9194
rfemur -12.491 3.67449 27.4869
rtibia 16.9919
rfoot -11.2197 -9.46033
rtoes 12.636
lfemur -9.57475 -5.08752 -13.4958
ltibia 13.4956
lfoot -10.4432 5.36837
ltoes 0.909646
27
root 40.9778 17.8277 1.60555 105.649 -84.8057 -95.3379
lowerback -6.31822 -1.70016 3.60675
upperback -2.41466 -2.61895 2.88499
thorax 1.02603 -1.35387 0.761608
lowerneck -13.3892 -9.49355 -11.9861
upperneck 14.9997 -12.2055 8.78802
head 8.13206 -5.77666 3.39741
rclavicle 9.83984e-015 1.64991e-014
rhumerus -27.4714 -7.68595 -80.8424
rradius 26.7258
rwrist 11.531
rhand -13.8153 -25.3727
rfingers 7.12502
rthumb 12.3072 -54.9905
lclavicle 9.83984e-015 1.64991e-014
lhumerus -29.5973 12.0554 82.6712
lradius 24.8037
lwrist -24.2895
lhand -13.2353 21.3158
lfingers 7.12502
lthumb 12.8664 50.8992
rfemur -12.5233 3.62389 27.5972
rtibia 17.1544
rfoot -11.4336 -9.45987
rtoes 12.3064
lfemur -9.86344 -4.94632 -13.3868
ltibia 14.105
lfoot -10.6773 5.24572
ltoes 0.827326
28
root 40.9709 17.8216 1.59968 105.035 -84.7366 -94.7442
lowerback -6.29643 -1.67165 3.69174
upperback -2.37968 -2.5854 2.87644
thorax 1.04616 -1.33656 0.707797
lowerneck -13.4568 -9.47751 -11.9392
upperneck 14.9442 -12.1751 8.77357
head 8.11805 -5.75834 3.38761
rclavicle 1.31571e-014 -1.68967e-014
rhumerus -27.3949 -7.54844 -80.9647
rradius 26.8517
rwrist 11.4377
rhand -13.8121 -25.3705
rfingers 7.12502
rthumb 12.3103 -54.9881
lclavicle 1.31571e-014 -1.68967e-014
lhumerus -29.5242 11.9822 82.6686
lradius 24.8749
lwrist -24.1917
lhand -13.2777 21.2936
lfingers 7.12502
lthumb 12.8255 50.8796
rfemur -12.5535 3.57273 27.7181
rtibia 17.3235
rfoot -11.6553 -9.45872
rtoes 11.9661
lfemur -10.183 -4.79159 -13.2686
ltibia 14.7778
lfoot -10.9157 5.12224
ltoes 0.719572
29
root 40.9636 17.8152 1.59367 104.402 -84.6591 -94.1366
lowerback -6.27227 -1.64343 3.78515
upperback -2.34065 -2.55282 2.87032
thorax 1.06895 -1.31964 0.651724
lowerneck -13.5172 -9.46019 -11.895
upperneck 14.8759 -12.1429 8.76356
head 8.09889 -5.73924 3.38033
rclavicle 3.0675e-014 5.76476e-015
rhumerus -27.3216 -7.41521 -81.0813
rradius 26.974
rwrist 11.3474
rhand -13.8138 -25.3707
rfingers 7.12502
rthumb 12.3086 -54.9885
lclavicle 3.0675e-014 5.76476e-015
lhumerus -29.4546 11.9184 82.6631
lradius 24.9426
lwrist -24.1012
lhand -13.3175 21.2707
lfingers 7.12502
lthumb 12.7871 50.8591
rfemur -12.5797 3.5204 27.8499
rtibia 17.4983
rfoot -11.8848 -9.45729
rtoes 11.6116
lfemur -10.5345 -4.62407 -13.1411
ltibia 15.5172
lfoot -11.1586 4.99958
ltoes 0.581772
30
root 40.956 17.8084 1.58753 103.756 -84.5736 -93.5204
lowerback -6.24443 -1.61465 3.88635
upperback -2.29618 -2.51995 2.86614
thorax 1.09516 -1.30243 0.593355
lowerneck -13.5807 -9.44372 -11.8495
upperneck 14.7996 -12.1111 8.7537
head 8.0776 -5.72011 3.37278
rclavicle 9.49197e-015 -3.45885e-014
rhumerus -27.2484 -7.28953 -81.1919
rradius 27.0921
rwrist 11.2597
rhand -13.812 -25.3757
rfingers 7.12502
rthumb 12.3104 -54.9933
lclavicle 9.49197e-015 -3.45885e-014
lhumerus -29.3842 11.8631 82.6564
lradius 25.0058
lwrist -24.0182
lhand -13.3564 21.2468
lfingers 7.12502
lthumb 12.7496 50.8376
rfemur -12.6016 3.46716 27.9922
rtibia 17.6783
rfoot -12.1204 -9.45619
rtoes 11.2467
lfemur -10.919 -4.44416 -13.005
ltibia 16.3235
lfoot -11.4031 4.88037
ltoes 0.414792
31
root 40.948 17.8011 1.58126 103.097 -84.4802 -92.8952
lowerback -6.21278 -1.585 3.99587
upperback -2.2458 -2.48639 2.86319
thorax 1.12518 -1.28471 0.531669
lowerneck -13.6499 -9.42825 -11.8023
upperneck 14.7161 -12.0799 8.74495
head 8.05495 -5.7009 3.36508
rclavicle -1.47598e-014 -1.07344e-014
rhumerus -27.1746 -7.17324 -81.2972
rradius 27.2059
rwrist 11.1736
rhand -13.8105 -25.3825
rfingers 7.12502
rthumb 12.3118 -55.0001
lclavicle -1.47598e-014 -1.07344e-014
lhumerus -29.3125 11.8146 82.6482
lradius 25.0653
lwrist -23.9415
lhand -13.3921 21.2243
lfingers 7.12502
lthumb 12.7152 50.8171
rfemur -12.6181 3.41278 28.1445
rtibia 17.8613
rfoot -12.3614 -9.4558
rtoes 10.8681
lfemur -11.3372 -4.25234 -12.8611
ltibia 17.1974
lfoot -11.6486 4.76691
ltoes 0.206757
32
root 40.9396 17.7935 1.57487 102.431 -84.3789 -92.2684
lowerback -6.17544 -1.55498 4.11271
upperback -2.19211 -2.45259 2.8624
thorax 1.15536 -1.26677 0.468275
lowerneck -13.7169 -9.41296 -11.7563
upperneck 14.624 -12.0487 8.73836
head 8.02932 -5.68166 3.35846
rclavicle 1.19768e-014 -2.5842e-014
rhumerus -27.1048 -7.06358 -81.396
rradius 27.3154
rwrist 11.0894
rhand -13.8112 -25.3928
rfingers 7.12502
rthumb 12.3111 -55.0104
lclavicle 1.19768e-014 -2.5842e-014
lhumerus -29.2452 11.7754 82.638
lradius 25.1217
lwrist -23.8704
lhand -13.4273 21.2002
lfingers 7.12502
lthumb 12.6812 50.7952
rfemur -12.6289 3.35785 28.3069
rtibia 18.0468
rfoot -12.6082 -9.45655
rtoes 10.4771
lfemur -11.79 -4.04905 -12.7095
ltibia 18.1388
lfoot -11.8941 4.65847
ltoes -0.0417663
33
root 40.9306 17.7855 1.56835 101.759 -84.27 -91.6397
lowerback -6.13327 -1.52513 4.23647
upperback -2.13484 -2.41933 2.86382
thorax 1.18646 -1.24899 0.403357
lowerneck -13.7812 -9.3975 -11.7127
upperneck 14.5235 -12.0169 8.73448
head 8.00076 -5.66219 3.35334
rclavicle 4.77083e-015 9.34288e-015
rhumerus -27.0385 -6.96005 -81.4888
rradius 27.4184
rwrist 11.011
rhand -13.8087 -25.397
rfingers 7.12502
rthumb 12.3136 -55.0144
lclavicle 4.77083e-015 9.34288e-015
lhumerus -29.1829 11.7485 82.6245
lradius 25.1745
lwrist -23.8063
lhand -13.4616 21.17
lfingers 7.12502
lthumb 12.6482 50.767
rfemur -12.6331 3.30217 28.4789
rtibia 18.2341
rfoot -12.8597 -9.45863
rtoes 10.076
lfemur -12.2769 -3.83696 -12.5509
ltibia 19.1458
lfoot -12.1396 4.55567
ltoes -0.320128
34
root 40.9211 17.7772 1.56174 101.098 -84.1532 -91.0268
lowerback -6.08672 -1.49513 4.36693
upperback -2.07493 -2.38615 2.86793
thorax 1.21782 -1.23117 0.337576
lowerneck -13.8388 -9.38166 -11.6721
upperneck 14.4133 -11.9845 8.73309
head 7.96814 -5.64262 3.34993
rclavicle 2.41026e-015 -3.22031e-014
rhumerus -26.9778 -6.86031 -81.5755
rradius 27.5162
rwrist 10.9358
rhand -13.8099 -25.3963
rfingers 7.12502
rthumb 12.3124 -55.0138
lclavicle 2.41026e-015 -3.22031e-014
lhumerus -29.1283 11.7338 82.6083
lradius 25.2257
lwrist -23.7444
lhand -13.4942 21.1379
lfingers 7.12502
lthumb 12.6168 50.7369
rfemur -12.6308 3.24594 28.6606
rtibia 18.4222
rfoot -13.1151 -9.46114
rtoes 9.66445
lfemur -12.7987 -3.61357 -12.3855
ltibia 20.218
lfoot -12.3861 4.45702
ltoes -0.631719
35
root 40.9109 17.7686 1.55503 100.447 -84.0277 -90.4277
lowerback -6.03445 -1.4638 4.50494
upperback -2.01198 -2.35147 2.87419
thorax 1.2491 -1.2125 0.270027
lowerneck -13.8988 -9.36753 -11.6311
upperneck 14.2976 -11.9539 8.73206
head 7.93433 -5.62382 3.34628
rclavicle 1.46852e-014 -2.5842e-015
rhumerus -26.9207 -6.76978 -81.6557
rradius 27.608
rwrist 10.8657
rhand -13.8162 -25.4036
rfingers 7.12502
rthumb 12.3064 -55.0215
lclavicle 1.46852e-014 -2.5842e-015
lhumerus -29.078 11.7283 82.5905
lradius 25.2749
lwrist -23.6879
lhand -13.5205 21.1107
lfingers 7.12502
lthumb 12.5914 50.7112
rfemur -12.6222 3.18862 28.8531
rtibia 18.6106
rfoot -13.373 -9.46462
rtoes 9.23667
lfemur -13.3558 -3.38157 -12.2127
ltibia 21.3523
lfoot -12.6348 4.3581
ltoes -0.962863
36
root 40.9 17.7598 1.54822 99.8126 -83.8952 -89.8477
lowerback -5.97678 -1.43199 4.64823
upperback -1.94715 -2.3162 2.88275
thorax 1.27937 -1.19347 0.20209
lowerneck -13.9573 -9.35405 -11.5915
upperneck 14.1766 -11.9238 8.73124
head 7.89872 -5.6054 3.34295
rclavicle -1.32689e-014 1.23246e-014
rhumerus -26.8697 -6.68483 -81.7296
rradius 27.6947
rwrist 10.8002
rhand -13.818 -25.4132
rfingers 7.12502
rthumb 12.3046 -55.0312
lclavicle -1.32689e-014 1.23246e-014
lhumerus -29.036 11.733 82.571
lradius 25.3228
lwrist -23.6312
lhand -13.5459 21.0866
lfingers 7.12502
lthumb 12.5669 50.6887
rfemur -12.6064 3.1315 29.054
rtibia 18.7976
rfoot -13.6329 -9.46995
rtoes 8.80117
lfemur -13.9477 -3.14182 -12.0347
ltibia 22.5443
lfoot -12.8809 4.26014
ltoes -1.3198
37
root 40.8883 17.7508 1.54125 99.1581 -83.7567 -89.2527
lowerback -5.91257 -1.40096 4.79535
upperback -1.88005 -2.28187 2.89362
thorax 1.30842 -1.17482 0.134493
lowerneck -14.0154 -9.34194 -11.5537
upperneck 14.0508 -11.8952 8.73165
head 7.86186 -5.58773 3.34014
rclavicle 2.74199e-014 -4.75095e-014
rhumerus -26.8246 -6.60588 -81.7976
rradius 27.7756
rwrist 10.7391
rhand -13.826 -25.4288
rfingers 7.12502
rthumb 12.2969 -55.0472
lclavicle 2.74199e-014 -4.75095e-014
lhumerus -29.0021 11.7483 82.5495
lradius 25.3686
lwrist -23.5749
lhand -13.5696 21.065
lfingers 7.12502
lthumb 12.5441 50.6684
rfemur -12.5784 3.0745 29.2631
rtibia 18.9785
rfoot -13.8938 -9.4811
rtoes 8.35798
lfemur -14.5713 -2.89774 -11.8518
ltibia 23.7892
lfoot -13.1223 4.16281
ltoes -1.70916
38
root 40.8758 17.7416 1.53433 98.5731 -83.6121 -88.7285
lowerback -5.84159 -1.36787 4.9479
upperback -1.81316 -2.24465 2.90607
thorax 1.33358 -1.15475 0.0659054
lowerneck -14.0714 -9.33039 -11.5184
upperneck 13.9207 -11.867 8.73314
head 7.82354 -5.57045 3.33811
rclavicle -3.02525e-014 2.98177e-014
rhumerus -26.7869 -6.53157 -81.8601
rradius 27.8506
rwrist 10.6829
rhand -13.8307 -25.4487
rfingers 7.12502
rthumb 12.2923 -55.0674
lclavicle -3.02525e-014 2.98177e-014
lhumerus -28.9793 11.7749 82.5254
lradius 25.4133
lwrist -23.5171
lhand -13.5915 21.0422
lfingers 7.12502
lthumb 12.523 50.647
rfemur -12.5459 3.01871 29.4782
rtibia 19.1585
rfoot -14.1556 -9.49039
rtoes 7.90699
lfemur -15.229 -2.64442 -11.6665
ltibia 25.0825
lfoot -13.3571 4.07159
ltoes -2.13388
39
root 40.8625 17.7324 1.52739 98.038 -83.4627 -88.2562
lowerback -5.76319 -1.33343 5.10377
upperback -1.74707 -2.20524 2.92031
thorax 1.35399 -1.13364 -0.00232688
lowerneck -14.1265 -9.31974 -11.4844
upperneck 13.7884 -11.8398 8.73401
head 7.78453 -5.5538 3.33602
rclavicle 1.54058e-015 2.10712e-014
rhumerus -26.758 -6.46115 -81.9171
rradius 27.9193
rwrist 10.6299
rhand -13.8358 -25.4638
rfingers 7.12502
rthumb 12.2874 -55.0828
lclavicle 1.54058e-015 2.10712e-014
lhumerus -28.9697 11.8124 82.4985
lradius 25.4586
lwrist -23.457
lhand -13.6089 21.0225
lfingers 7.12502
lthumb 12.5062 50.6282
rfemur -12.5056 2.96462 29.6987
rtibia 19.3334
rfoot -14.4167 -9.50072
rtoes 7.44695
lfemur -15.918 -2.38381 -11.4794
ltibia 26.4169
lfoot -13.5797 3.98484
ltoes -2.57267
40
root 40.8481 17.7231 1.52044 97.536 -83.3101 -87.8186
lowerback -5.6783 -1.29857 5.26132
upperback -1.68195 -2.16479 2.9359
thorax 1.37 -1.11206 -0.0698438
lowerneck -14.1785 -9.31002 -11.4533
upperneck 13.6545 -11.8137 8.73526
head 7.74479 -5.53796 3.33448
rclavicle 2.23633e-014 -4.13472e-014
rhumerus -26.7382 -6.3954 -81.9688
rradius 27.9811
rwrist 10.5832
rhand -13.8427 -25.4828
rfingers 7.12502
rthumb 12.2808 -55.1022
lclavicle 2.23633e-014 -4.13472e-014
lhumerus -28.9736 11.8615 82.4686
lradius 25.5037
lwrist -23.3927
lhand -13.6216 21.0029
lfingers 7.12502
lthumb 12.494 50.6094
rfemur -12.4558 2.91201 29.9227
rtibia 19.501
rfoot -14.6766 -9.51375
rtoes 6.98154
lfemur -16.6372 -2.11732 -11.2925
ltibia 27.7878
lfoot -13.7975 3.90268
ltoes -3.04462
